<?xml version="1.0" encoding="utf-8"?>
<!-- Generator: Adobe Illustrator 18.1.1, SVG Export Plug-In . SVG Version: 6.00 Build 0)  -->
<svg version="1.1" id="Layer_1" xmlns="http://www.w3.org/2000/svg" xmlns:xlink="http://www.w3.org/1999/xlink" x="0px" y="0px"
	 viewBox="0 0 150 150" enable-background="new 0 0 150 150" xml:space="preserve">
<g>
	<path fill="#8C181B" d="M80.6,99L59.4,87.5L47.9,66.3c-0.4-0.8-1.3-1.3-2.2-1.3c-0.9,0-1.8,0.5-2.2,1.3L31.9,87.5L10.8,99
		c-0.8,0.4-1.3,1.3-1.3,2.2c0,0.9,0.5,1.8,1.3,2.2l21.1,11.6l11.6,21.1c0.4,0.8,1.3,1.3,2.2,1.3c0.9,0,1.8-0.5,2.2-1.3l11.6-21.1
		l21.1-11.6c0.8-0.4,1.3-1.3,1.3-2.2C81.9,100.3,81.4,99.4,80.6,99L80.6,99z M56.4,110.9c-0.4,0.2-0.8,0.6-1,1l-9.7,17.8L36,111.9
		c-0.2-0.4-0.6-0.8-1-1l-17.8-9.7L35,91.5c0.4-0.2,0.8-0.6,1-1l9.7-17.8l9.7,17.8c0.2,0.4,0.6,0.8,1,1l17.8,9.7L56.4,110.9z
		 M56.4,110.9"/>
	<path fill="#8C181B" d="M139.2,74.1l-12.7-6.9l-6.9-12.7c-0.4-0.8-1.3-1.3-2.2-1.3c-0.9,0-1.8,0.5-2.2,1.3l-6.9,12.7l-12.7,6.9
		c-0.8,0.4-1.3,1.3-1.3,2.2s0.5,1.8,1.3,2.2l12.7,6.9l6.9,12.7c0.4,0.8,1.3,1.3,2.2,1.3c0.9,0,1.8-0.5,2.2-1.3l6.9-12.7l12.7-6.9
		c0.8-0.4,1.3-1.3,1.3-2.2S140,74.5,139.2,74.1L139.2,74.1z M123.5,81.3c-0.4,0.2-0.8,0.6-1,1l-5.1,9.3l-5.1-9.3
		c-0.2-0.4-0.6-0.8-1-1l-9.3-5.1l9.3-5.1c0.4-0.2,0.8-0.6,1-1l5.1-9.3l5.1,9.3c0.2,0.4,0.6,0.8,1,1l9.3,5.1L123.5,81.3z M123.5,81.3
		"/>
	<path fill="#8C181B" d="M94.6,28.8L85,23.6l-5.3-9.6c-0.4-0.8-1.3-1.3-2.2-1.3c-0.9,0-1.8,0.5-2.2,1.3L70,23.6l-9.6,5.3
		c-0.8,0.4-1.3,1.3-1.3,2.2c0,0.9,0.5,1.8,1.3,2.2l9.6,5.3l5.3,9.6c0.4,0.8,1.3,1.3,2.2,1.3c0.9,0,1.8-0.5,2.2-1.3l5.3-9.6l9.6-5.3
		c0.8-0.4,1.3-1.3,1.3-2.2C95.9,30.1,95.4,29.3,94.6,28.8L94.6,28.8z M81.9,34.5c-0.4,0.2-0.8,0.6-1,1l-3.4,6.3l-3.4-6.3
		c-0.2-0.4-0.6-0.8-1-1L66.8,31l6.3-3.4c0.4-0.2,0.8-0.6,1-1l3.4-6.3l3.4,6.3c0.2,0.4,0.6,0.8,1,1l6.3,3.4L81.9,34.5z M81.9,34.5"/>
</g>
</svg>
