<?xml version="1.0" encoding="utf-8"?>
<!-- Generator: Adobe Illustrator 18.1.1, SVG Export Plug-In . SVG Version: 6.00 Build 0)  -->
<svg version="1.1" id="Layer_1" xmlns="http://www.w3.org/2000/svg" xmlns:xlink="http://www.w3.org/1999/xlink" x="0px" y="0px"
	 viewBox="0 0 150 150" enable-background="new 0 0 150 150" xml:space="preserve">
<g display="none">
	<path display="inline" fill="#8C181B" d="M80.6,99L59.4,87.5L47.9,66.3c-0.4-0.8-1.3-1.3-2.2-1.3c-0.9,0-1.8,0.5-2.2,1.3L31.9,87.5
		L10.8,99c-0.8,0.4-1.3,1.3-1.3,2.2c0,0.9,0.5,1.8,1.3,2.2l21.1,11.6l11.6,21.1c0.4,0.8,1.3,1.3,2.2,1.3c0.9,0,1.8-0.5,2.2-1.3
		l11.6-21.1l21.1-11.6c0.8-0.4,1.3-1.3,1.3-2.2C81.9,100.3,81.4,99.4,80.6,99L80.6,99z M56.4,110.9c-0.4,0.2-0.8,0.6-1,1l-9.7,17.8
		L36,111.9c-0.2-0.4-0.6-0.8-1-1l-17.8-9.7L35,91.5c0.4-0.2,0.8-0.6,1-1l9.7-17.8l9.7,17.8c0.2,0.4,0.6,0.8,1,1l17.8,9.7L56.4,110.9
		z M56.4,110.9"/>
	<path display="inline" fill="#8C181B" d="M139.2,74.1l-12.7-6.9l-6.9-12.7c-0.4-0.8-1.3-1.3-2.2-1.3c-0.9,0-1.8,0.5-2.2,1.3
		l-6.9,12.7l-12.7,6.9c-0.8,0.4-1.3,1.3-1.3,2.2s0.5,1.8,1.3,2.2l12.7,6.9l6.9,12.7c0.4,0.8,1.3,1.3,2.2,1.3c0.9,0,1.8-0.5,2.2-1.3
		l6.9-12.7l12.7-6.9c0.8-0.4,1.3-1.3,1.3-2.2S140,74.5,139.2,74.1L139.2,74.1z M123.5,81.3c-0.4,0.2-0.8,0.6-1,1l-5.1,9.3l-5.1-9.3
		c-0.2-0.4-0.6-0.8-1-1l-9.3-5.1l9.3-5.1c0.4-0.2,0.8-0.6,1-1l5.1-9.3l5.1,9.3c0.2,0.4,0.6,0.8,1,1l9.3,5.1L123.5,81.3z M123.5,81.3
		"/>
	<path display="inline" fill="#8C181B" d="M94.6,28.8L85,23.6l-5.3-9.6c-0.4-0.8-1.3-1.3-2.2-1.3c-0.9,0-1.8,0.5-2.2,1.3L70,23.6
		l-9.6,5.3c-0.8,0.4-1.3,1.3-1.3,2.2c0,0.9,0.5,1.8,1.3,2.2l9.6,5.3l5.3,9.6c0.4,0.8,1.3,1.3,2.2,1.3c0.9,0,1.8-0.5,2.2-1.3l5.3-9.6
		l9.6-5.3c0.8-0.4,1.3-1.3,1.3-2.2C95.9,30.1,95.4,29.3,94.6,28.8L94.6,28.8z M81.9,34.5c-0.4,0.2-0.8,0.6-1,1l-3.4,6.3l-3.4-6.3
		c-0.2-0.4-0.6-0.8-1-1L66.8,31l6.3-3.4c0.4-0.2,0.8-0.6,1-1l3.4-6.3l3.4,6.3c0.2,0.4,0.6,0.8,1,1l6.3,3.4L81.9,34.5z M81.9,34.5"/>
</g>
<g display="none">
	<path display="inline" fill="#B5842A" d="M37.2,89.6h33.1V66H37.2V89.6z M41.9,84.9v-7.1h23.6v7.1H41.9z M65.5,70.7v2.4H41.9v-2.4
		H65.5z M65.5,70.7"/>
	<path display="inline" fill="#B5842A" d="M37.2,99.1v28.4h33.1V99.1H37.2z M51.4,103.8v7.1h-9.4v-7.1H51.4z M41.9,115.6h9.4v7.1
		h-9.4V115.6z M56.1,122.7v-7.1h9.4v7.1H56.1z M65.5,110.9h-9.4v-7.1h9.4V110.9z M65.5,110.9"/>
	<path display="inline" fill="#B5842A" d="M79.7,89.6h33.1V66H79.7V89.6z M84.4,84.9v-2.4h23.6v2.4H84.4z M108.1,70.7v7.1H84.4v-7.1
		H108.1z M108.1,70.7"/>
	<path display="inline" fill="#B5842A" d="M143.5,118c-1.3,0-2.4,1.1-2.4,2.4v2.4h-2.4v-2.4c0-1.3-1.1-2.4-2.4-2.4
		c-1.3,0-2.4,1.1-2.4,2.4v2.4h-2.4V74.9c1.2,0.6,2.5,0.9,3.8,0.9c2.5,0,5.1-1,6.9-3c1.8-1.9,2.7-4.5,2.5-7.2
		c-0.2-2.6-1.5-5.1-3.6-6.7L81.4,12L75,6l-6.3,5.8l-60.1,47C6.5,60.5,5.2,63,5,65.6c-0.2,2.6,0.7,5.2,2.5,7.2
		c2.8,3,7.1,3.8,10.8,2.2v47.7h-2.4v-2.4c0-1.3-1.1-2.4-2.4-2.4c-1.3,0-2.4,1.1-2.4,2.4v2.4H8.8v-2.4c0-1.3-1.1-2.4-2.4-2.4
		c-1.3,0-2.4,1.1-2.4,2.4v21.3c0,1.3,1.1,2.4,2.4,2.4c1.3,0,2.4-1.1,2.4-2.4v-2.4h2.4v2.4c0,1.3,1.1,2.4,2.4,2.4
		c1.3,0,2.4-1.1,2.4-2.4v-2.4h2.4v4.7h113.4v-4.7h2.4v2.4c0,1.3,1.1,2.4,2.4,2.4c1.3,0,2.4-1.1,2.4-2.4v-2.4h2.4v2.4
		c0,1.3,1.1,2.4,2.4,2.4c1.3,0,2.4-1.1,2.4-2.4v-21.3C145.9,119,144.8,118,143.5,118L143.5,118z M11,69.5c-0.9-1-1.4-2.3-1.2-3.6
		c0.1-1.3,0.8-2.5,1.8-3.3l60.2-47.1l3.2-3l3.4,3.1l60.1,47c1.1,0.8,1.7,2,1.8,3.3c0.1,1.3-0.3,2.6-1.2,3.6c-1.7,1.8-4.4,2-6.3,0.5
		l-1-0.7L75,25.6l-55.8,43h0l-1.9,1.4C15.4,71.6,12.7,71.3,11,69.5L11,69.5z M8.8,134.5v-7.1h2.4v7.1H8.8z M15.9,134.5v-7.1h2.4v7.1
		H15.9z M84.4,139.2v-35.4h23.6v35.4H84.4z M127,139.2h-14.2V99.1H79.7v40.2H23V71.7l52-40.1l52,40.1V139.2z M131.7,134.5v-7.1h2.4
		v7.1H131.7z M138.8,134.5v-7.1h2.4v7.1H138.8z M138.8,134.5"/>
</g>
<g>
	<path fill="#8C181B" d="M39.3,135.2H13.7v-22.6h18.6c1.5,0,2.7-1.2,2.7-2.7V71c0-1.5-1.2-2.7-2.7-2.7H13.7V50.4h43.1v4.7
		c0,1.5,1.2,2.7,2.7,2.7c1.5,0,2.7-1.2,2.7-2.7v-7.3c0-0.9-0.4-1.7-1.2-2.2L46,35.4V18c0-1.5-1.2-2.7-2.7-2.7H27.2
		c-1.5,0-2.7,1.2-2.7,2.7v17.3l-15,10.2c-0.7,0.5-1.2,1.3-1.2,2.2v90.1c0,1.5,1.2,2.7,2.7,2.7h28.3c1.5,0,2.7-1.2,2.7-2.7
		C41.9,136.4,40.8,135.2,39.3,135.2L39.3,135.2z M29.6,73.6v33.7H13.7V73.6H29.6z M28,39.4h14.5l8.3,5.7H19.6L28,39.4z M29.8,20.7
		h10.8v13.4H29.8V20.7z M29.8,20.7"/>
	<g>
		<path fill="#8C181B" d="M86.3,61.3H46.7c-1.5,0-2.7,1.2-2.7,2.7v81c0,1.5,1.2,2.7,2.7,2.7h39.6c1.5,0,2.7-1.2,2.7-2.7v-81
			C89,62.4,87.8,61.3,86.3,61.3L86.3,61.3z M83.7,76.8h-3.2V66.6h3.2V76.8z M57.9,76.8V66.6h6v10.3H57.9z M69.2,66.6h6v10.3h-6V66.6
			z M52.6,66.6v10.3h-3.2V66.6H52.6z M49.4,142.2V82.1h34.3v60.1H49.4z M49.4,142.2"/>
		<path fill="#8C181B" d="M139,15.7H90.4L86.9,4.4C86.5,3,85,2.2,83.6,2.6l-13.2,4c-1,0.3-1.8,1.2-1.9,2.3C68.5,10,69,11,70,11.5
			L84,19L72.8,30.2c-0.5,0.5-0.8,1.2-0.8,1.9v23.7c0,1.5,1.2,2.7,2.7,2.7c1.5,0,2.7-1.2,2.7-2.7V33.2L89.5,21h46.8v94.7h-5.8
			c-1.5,0-2.7,1.2-2.7,2.7c0,1.5,1.2,2.7,2.7,2.7h8.5c1.5,0,2.7-1.2,2.7-2.7v-100C141.6,16.8,140.4,15.7,139,15.7L139,15.7z
			 M78.1,9.8l4.5-1.4L84,13L78.1,9.8z M78.1,9.8"/>
	</g>
	<path fill="#8C181B" d="M116.4,90.7v-7c0-1.5-1.2-2.7-2.7-2.7h-9.3c-1.5,0-2.7,1.2-2.7,2.7v7l-8.4,7.7c-0.6,0.5-0.9,1.2-0.9,2v37.1
		c0,1.5,1.2,2.7,2.7,2.7h27.9c1.5,0,2.7-1.2,2.7-2.7v-37.1c0-0.7-0.3-1.5-0.9-2L116.4,90.7z M105.5,94.5h7.3l3.5,3.2H102L105.5,94.5
		z M107.1,86.4h4v2.8h-4V86.4z M97.8,134.8V103h22.6v31.8H97.8z M97.8,134.8"/>
	<path fill="#8C181B" d="M77.1,98.6H55.9c-1.5,0-2.7,1.2-2.7,2.7v22.3c0,1.5,1.2,2.7,2.7,2.7h21.2c1.5,0,2.7-1.2,2.7-2.7v-22.3
		C79.8,99.8,78.6,98.6,77.1,98.6L77.1,98.6z M74.5,120.9H58.6v-17h15.9V120.9z M74.5,120.9"/>
</g>
</svg>
